<svg width="50" height="21" viewBox="0 0 50 21" fill="none" xmlns="http://www.w3.org/2000/svg">
<g id="Untitled-2">
<path id="Path" d="M11.9991 7C4.21724 7 0.167561 3.62943 0 3.48642L2.29647 0.0108611L2.28412 0C2.29294 0.00724076 3.11134 0.67158 4.70758 1.32687C6.18388 1.93328 8.64614 2.65555 12.0009 2.65555C18.4176 2.65555 21.6718 0.038014 21.7035 0.0108611L24 3.48642C23.8289 3.62943 19.781 7 11.9991 7Z" fill="#55B1DC"/>
<g id="madeby.">
<path d="M6.12414 17V13.832C6.12414 13.052 6.61614 12.368 7.40814 12.368C8.20014 12.368 8.52414 13.028 8.52414 13.808V17H9.98814V13.808C9.98814 12.032 9.16014 11 7.48014 11C6.71214 11 6.02814 11.24 5.50014 12.08C5.16414 11.264 4.45614 10.976 3.74814 10.976C3.18414 10.976 2.50014 11.192 2.18814 11.792L2.08014 11.072H0.72414V17H2.18814V13.832C2.18814 13.052 2.65614 12.344 3.44814 12.344C4.25214 12.344 4.66014 13.052 4.66014 13.832V17H6.12414Z" fill="#1A1A1A"/>
<path d="M16.126 11.9C15.79 11.312 15.034 10.94 14.242 10.94C12.514 10.928 11.158 11.996 11.158 14.036C11.158 16.112 12.454 17.192 14.206 17.18C14.866 17.168 15.79 16.832 16.126 16.136L16.198 17H17.578V11.084H16.174L16.126 11.9ZM14.374 12.248C16.678 12.248 16.678 15.836 14.374 15.836C13.402 15.836 12.622 15.164 12.622 14.036C12.622 12.908 13.402 12.248 14.374 12.248Z" fill="#1A1A1A"/>
<path d="M21.6859 12.308C22.6099 12.308 23.4019 13.004 23.4019 14.036C23.4019 15.104 22.6099 15.776 21.6859 15.776C20.7499 15.776 20.0059 15.068 20.0059 14.036C20.0059 12.968 20.7499 12.308 21.6859 12.308ZM23.4979 8.612V11.888C23.1499 11.276 22.1779 10.94 21.5539 10.94C19.8259 10.94 18.5419 11.996 18.5419 14.036C18.5419 15.98 19.8499 17.132 21.5899 17.132C22.3099 17.132 23.0419 16.892 23.4979 16.184L23.5939 17H24.9619V8.612H23.4979Z" fill="#1A1A1A"/>
<path d="M32.2328 14.564C32.4608 12.128 31.2248 10.904 29.2448 10.904C27.3248 10.904 26.1008 12.2 26.1008 14C26.1008 15.896 27.3128 17.156 29.3528 17.156C30.2528 17.156 31.2728 16.844 31.8968 16.196L30.9608 15.272C30.6248 15.62 29.9168 15.824 29.3768 15.824C28.3448 15.824 27.7088 15.296 27.6128 14.564H32.2328ZM27.6368 13.352C27.8528 12.584 28.5008 12.2 29.2928 12.2C30.1328 12.2 30.7328 12.584 30.8288 13.352H27.6368Z" fill="#1A1A1A"/>
<path d="M36.6369 12.308C37.5729 12.308 38.3169 12.968 38.3169 14.036C38.3169 15.068 37.5729 15.776 36.6369 15.776C35.7129 15.776 34.9209 15.104 34.9209 14.036C34.9209 13.004 35.7129 12.308 36.6369 12.308ZM33.3609 8.612V17H34.7289L34.8249 16.184C35.2809 16.892 36.0129 17.132 36.7329 17.132C38.4729 17.132 39.7809 15.98 39.7809 14.036C39.7809 11.996 38.4969 10.94 36.7689 10.94C36.1449 10.94 35.1729 11.276 34.8249 11.888V8.612H33.3609Z" fill="#1A1A1A"/>
<path d="M44.947 11.084L43.867 13.676L43.255 15.308L42.691 13.64L41.791 11.084H40.087L42.451 16.904L41.347 19.472H42.955L46.567 11.084H44.947Z" fill="#1A1A1A"/>
<path d="M47.2936 16.244C47.2936 17.384 49.0216 17.384 49.0216 16.244C49.0216 15.104 47.2936 15.104 47.2936 16.244Z" fill="#1A1A1A"/>
</g>
</g>
</svg>
