<svg id="vector" xmlns="http://www.w3.org/2000/svg" width="512" height="512" viewBox="0 0 512 512"><path fill="#FFFFFF" d="M434.5,84.31L315.4,15.85c-36.75,-21.13 -81.97,-21.13 -118.72,0L77.57,84.31c-36.96,21.25 -59.75,60.63 -59.75,103.26v136.04c0,42.63 22.79,82.02 59.75,103.26l119.11,68.47c36.75,21.13 81.97,21.13 118.72,0l119.11,-68.47c36.96,-21.25 59.75,-60.63 59.75,-103.26V187.58C494.25,144.94 471.47,105.56 434.5,84.31zM418.86,194.07c-14.8,8.71 -29.06,18.14 -44.15,28.12c-14.15,9.36 -28.79,19.05 -43.93,28.09c-27.06,16.16 -62.94,37.58 -102.58,37.58c-5.35,0 -10.76,-0.39 -16.23,-1.23c-23.23,-3.59 -44.02,-14 -62.37,-23.19l-4.65,-2.32c-15.95,-7.93 -22.45,-27.29 -14.52,-43.25c7.94,-15.95 27.3,-22.45 43.25,-14.52l4.81,2.4c14.79,7.41 30.09,15.07 43.33,17.11c23.07,3.57 52.35,-13.92 75.89,-27.98c13.86,-8.28 27.24,-17.13 41.41,-26.5c15.12,-10.01 30.76,-20.35 47.03,-29.93c15.35,-9.04 35.13,-3.91 44.16,11.45C439.34,165.26 434.22,185.04 418.86,194.07z" id="path_0"/></svg>