<svg width="75" height="81" viewBox="0 0 75 81" fill="none" xmlns="http://www.w3.org/2000/svg">
<g id="Untitled-3">
<g id="Group" opacity="0.6">
<path id="Path" d="M39.0994 44.2738C38.2527 44.2738 37.3982 44.2103 36.5358 44.0754C32.8666 43.5 29.5817 41.8373 26.6887 40.369L25.9518 39.996C23.4312 38.7262 22.4042 35.631 23.6586 33.0794C24.913 30.5278 27.9706 29.4881 30.4911 30.7579L31.2555 31.1429C33.5918 32.3254 36.0066 33.5516 38.0959 33.877C41.7337 34.4444 46.3671 31.6508 50.0833 29.4048C52.2746 28.0794 54.3914 26.6627 56.6297 25.1627C59.017 23.5635 61.4866 21.9087 64.0542 20.381C66.4806 18.9365 69.6049 19.754 71.0318 22.2103C72.4586 24.6667 71.6511 27.8294 69.2246 29.2738C66.8883 30.6667 64.6382 32.1746 62.2549 33.7698C60.0166 35.2698 57.7038 36.8175 55.3086 38.2659C51.028 40.8492 45.3597 44.2738 39.0994 44.2738Z" fill="#8BC34A"/>
</g>
<path id="Shape" fill-rule="evenodd" clip-rule="evenodd" d="M26.582 3.42927C29.8984 1.51172 33.6758 0.5 37.5 0.5C41.3242 0.5 45.1016 1.51172 48.418 3.42927L64.043 12.4641C70.8008 16.3737 75 23.6636 75 31.4946V49.5054C75 57.3364 70.8008 64.6263 64.043 68.5359L48.418 77.5707C45.1016 79.4883 41.3281 80.5 37.5 80.5C33.6719 80.5 29.8984 79.4883 26.582 77.5707L10.957 68.5359C4.19922 64.6263 0 57.3364 0 49.5054V31.4946C0 23.6636 4.19922 16.3737 10.957 12.4641L26.582 3.42927ZM43.7383 11.5857C41.8086 10.4681 39.6523 9.9113 37.5 9.9113C35.3477 9.9113 33.1914 10.4681 31.2617 11.5857L15.6367 20.6206C11.7617 22.8597 9.375 27.0046 9.375 31.4946V49.5054C9.375 53.9915 11.7617 58.1403 15.6367 60.3794L31.2617 69.4143C33.1914 70.5319 35.3477 71.0887 37.5 71.0887C39.6523 71.0887 41.8086 70.5319 43.7383 69.4143L59.3633 60.3794C63.2383 58.1403 65.625 53.9954 65.625 49.5054V31.4946C65.625 27.0085 63.2383 22.8597 59.3633 20.6206L43.7383 11.5857Z" fill="#8BC34A"/>
</g>
</svg>
