<svg id="vector" xmlns="http://www.w3.org/2000/svg" width="75" height="81" viewBox="0 0 75 81"><path fill="#89C148" d="M39.1,44.274c-0.847,0 -1.702,-0.064 -2.564,-0.199 -3.67,-0.575 -6.954,-2.238 -9.847,-3.706l-0.737,-0.373c-2.52,-1.27 -3.548,-4.365 -2.293,-6.917 1.254,-2.551 4.312,-3.59 6.832,-2.321l0.765,0.385c2.336,1.182 4.75,2.409 6.84,2.734 3.638,0.567 8.271,-2.226 11.987,-4.472 2.192,-1.326 4.308,-2.742 6.547,-4.242 2.387,-1.6 4.857,-3.254 7.424,-4.782 2.427,-1.444 5.55,-0.627 6.978,1.83 1.427,2.456 0.62,5.618 -1.807,7.063 -2.337,1.393 -4.587,2.9 -6.97,4.496 -2.238,1.5 -4.551,3.047 -6.946,4.496 -4.281,2.583 -9.95,6.008 -16.21,6.008z" fill-rule="nonzero" id="path_0"/><path fill="#89C148" d="M37.5,9.911c2.152,0 4.309,0.557 6.238,1.675l15.625,9.035c3.875,2.239 6.262,6.388 6.262,10.874v18.01c0,4.49 -2.387,8.635 -6.262,10.874l-15.625,9.035c-1.93,1.118 -4.086,1.675 -6.238,1.675s-4.309,-0.557 -6.238,-1.675L15.637,60.38c-3.875,-2.239 -6.262,-6.388 -6.262,-10.874v-18.01c0,-4.49 2.387,-8.635 6.262,-10.874l15.625,-9.035c1.93,-1.118 4.086,-1.675 6.238,-1.675M37.5,0.5c-3.824,0 -7.602,1.012 -10.918,2.93l-15.625,9.034C4.199,16.374 0,23.664 0,31.494v18.011c0,7.831 4.2,15.121 10.957,19.03l15.625,9.036c3.316,1.917 7.09,2.929 10.918,2.929 3.828,0 7.602,-1.012 10.918,-2.93l15.625,-9.034C70.801,64.626 75,57.336 75,49.506V31.494c0,-7.831 -4.2,-15.121 -10.957,-19.03L48.418,3.428C45.102,1.512 41.324,0.5 37.5,0.5z" fill-rule="nonzero" id="path_1"/></svg>